<svg width="244" height="190" viewBox="0 0 244 190" fill="none" xmlns="http://www.w3.org/2000/svg">
<path d="M27.7745 143.14C49.1716 177.664 98.9615 208.368 161.18 175.81C223.399 143.253 272.541 73.1032 224.241 30.9978C175.942 -11.1076 51.8316 -4.89052 17.8375 19.5924C-16.1566 44.0754 6.37741 108.616 27.7745 143.14Z" fill="#007200"/>
<path d="M98.3953 107.483C98.8219 111.744 97.3326 115.018 93.9273 117.305C90.581 119.522 84.9027 121.216 76.8923 122.387C77.4644 125.461 77.996 129.45 78.4873 134.357C79.1726 141.199 79.3294 146.725 78.9578 150.933C78.6453 155.07 77.673 158.229 76.0411 160.408C74.4027 162.524 71.9475 163.741 68.6754 164.059C65.4689 164.372 62.9114 163.578 61.0031 161.678C59.0948 159.778 57.6098 156.827 56.5481 152.823C55.4865 148.82 54.6195 143.462 53.9472 136.748C53.4947 132.229 53.1921 128.217 53.0393 124.712C47.5819 124.983 43.1424 124.861 39.7209 124.347C36.3584 123.763 33.8046 122.675 32.0595 121.085C30.3144 119.495 29.2932 117.215 28.9958 114.246C28.6338 110.631 29.5927 107.669 31.8726 105.361C34.1525 103.053 37.7371 101.237 42.6265 99.9131C47.516 98.5893 53.9853 97.5351 62.0344 96.7508C70.149 95.96 76.7678 95.7387 81.8908 96.0869C87.0137 96.4351 90.9547 97.5177 93.7137 99.3348C96.4728 101.152 98.0333 103.868 98.3953 107.483Z" fill="white"/>
<path d="M118.417 159.506C113.712 160.029 109.394 159.472 105.464 157.834C101.599 156.19 98.4447 153.727 96.0015 150.445C93.6173 147.093 92.1432 143.26 91.5792 138.947C91.0807 134.629 91.7071 130.656 93.4586 127.031C95.2101 123.405 97.8507 120.41 101.38 118.046C104.976 115.674 109.129 114.259 113.841 113.8C118.421 113.354 122.641 113.92 126.5 115.5C130.424 117.073 133.64 119.497 136.149 122.773C138.657 126.049 140.194 129.843 140.758 134.155C141.243 138.345 140.614 142.285 138.869 145.975C137.117 149.6 134.447 152.631 130.858 155.067C127.335 157.496 123.188 158.975 118.417 159.506ZM117.296 145.339C119.063 145.167 120.533 144.339 121.706 142.856C122.879 141.373 123.375 139.728 123.194 137.92C123.013 136.112 122.204 134.627 120.766 133.463C119.321 132.235 117.715 131.707 115.948 131.879C114.182 132.052 112.712 132.879 111.538 134.362C110.359 135.781 109.86 137.394 110.041 139.202C110.222 141.009 111.035 142.527 112.479 143.755C113.924 144.983 115.529 145.511 117.296 145.339Z" fill="white"/>
<path d="M157.414 169.59C154.208 169.902 151.723 168.515 149.96 165.427C148.204 162.404 146.958 158.875 146.224 154.84C145.555 150.799 144.887 145.453 144.222 138.804C143.711 133.704 143.458 129.199 143.463 125.287C143.533 121.369 144.211 117.913 145.497 114.92C146.783 111.926 149.03 110.273 152.236 109.961C155.574 109.636 158.124 110.691 159.888 113.126C161.283 111.882 163.061 110.829 165.221 109.967C167.441 109.033 169.794 108.445 172.28 108.203C176.469 107.795 180.433 108.452 184.174 110.173C187.914 111.895 191.006 114.396 193.449 117.678C195.893 120.96 197.321 124.667 197.735 128.798C198.148 132.93 197.486 136.873 195.747 140.628C194.002 144.318 191.466 147.368 188.14 149.778C184.813 152.188 181.055 153.597 176.867 154.005C174.315 154.254 171.894 154.164 169.604 153.735C167.308 153.242 165.317 152.491 163.63 151.482C164.043 155.613 164.233 158.822 164.197 161.107C164.162 163.392 163.626 165.302 162.59 166.837C161.626 168.43 159.901 169.348 157.414 169.59ZM174.766 137.979C176.468 137.813 177.879 137.056 178.999 135.709C180.179 134.29 180.685 132.741 180.517 131.063C180.349 129.384 179.549 127.996 178.117 126.897C176.744 125.727 175.207 125.225 173.506 125.39C171.804 125.556 170.364 126.349 169.184 127.767C168.064 129.115 167.588 130.628 167.756 132.306C167.924 133.985 168.694 135.409 170.067 136.579C171.498 137.678 173.065 138.145 174.766 137.979Z" fill="white"/>
<path d="M47.5736 90.521C43.0273 90.9639 38.5918 90.7784 34.2674 89.9646C30.0051 89.0762 26.4529 87.6382 23.6107 85.6508C20.7618 83.5954 19.1911 81.1067 18.8986 78.1847C18.6197 75.3986 19.2596 73.1062 20.8185 71.3076C22.3774 69.5089 24.4656 68.4821 27.0832 68.2271C28.8053 68.0593 30.3102 68.1528 31.5977 68.5077C32.9473 68.7879 34.4207 69.2619 36.0178 69.9298C37.1744 70.366 38.1485 70.7171 38.9403 70.9831C39.7941 71.1743 40.6688 71.2264 41.5643 71.1391C43.8375 70.9177 44.8856 69.9235 44.7088 68.1568C44.6407 67.4772 44.1007 66.9466 43.0887 66.5649C42.0699 66.1152 40.3797 65.5594 38.0181 64.8975C33.7974 63.7305 30.3379 62.5236 27.6395 61.277C23.4817 59.3491 20.5091 57.0999 18.7215 54.5294C17.0028 51.9522 15.9394 48.6249 15.5312 44.5477C15.1367 40.6064 16.0403 36.7788 18.2421 33.0649C20.4371 29.283 23.6334 26.1241 27.8312 23.588C32.0289 21.052 36.7454 19.529 41.9806 19.0189C47.0781 18.5223 51.8061 18.8508 56.1645 20.0044C60.585 21.0833 64.1368 22.8644 66.8199 25.3476C69.5651 27.7562 71.1009 30.5914 71.4274 33.8532C71.8016 37.5906 70.9473 40.5214 68.8646 42.6456C66.8439 44.695 64.4559 45.854 61.7005 46.1224C59.4273 46.3439 57.6916 46.3757 56.4934 46.218C55.364 46.0536 54.2244 45.7872 53.0746 45.4189C52.1451 45.1664 51.3636 45.0024 50.73 44.9269C50.0897 44.7834 49.2184 44.7653 48.1162 44.8727C47.2207 44.96 46.3903 45.3496 45.6249 46.0417C44.9216 46.6592 44.621 47.4776 44.723 48.4969C44.7978 49.2443 45.3102 49.8463 46.2601 50.3027C47.2032 50.6911 48.2807 51.0321 49.4926 51.3258C50.7044 51.6194 51.5617 51.8447 52.0643 52.0016C58.7019 53.6879 63.6858 55.8784 67.016 58.573C70.3395 61.1998 72.2359 64.8575 72.7053 69.5463C73.2835 75.3223 71.3594 80.0727 66.9329 83.7976C62.5684 87.4477 56.1154 89.6888 47.5736 90.521Z" fill="white"/>
<path d="M96.4025 85.6611C91.0294 86.1846 86.5018 85.4249 82.8194 83.382C79.1303 81.2713 77.0578 77.9394 76.6021 73.3866C76.2075 69.4453 77.6511 66.1483 80.933 63.4956C84.2148 60.8429 88.4733 59.2616 93.7086 58.7516C95.6373 58.5637 97.4454 58.5591 99.1326 58.7378C100.882 58.8418 102.087 59.0675 102.748 59.4148C102.578 57.716 101.715 56.3934 100.16 55.4471C98.5973 54.4328 96.3352 54.07 93.3731 54.3585C92.0643 54.486 91.0068 54.692 90.2006 54.9764C89.3944 55.2608 88.5295 55.6538 87.6059 56.1555C86.6824 56.6571 85.8175 57.0502 85.0113 57.3346C84.2739 57.6122 83.2509 57.8148 81.942 57.9423C79.7377 58.1571 77.9612 57.7812 76.6124 56.8148C75.2569 55.7803 74.4634 54.1079 74.2321 51.7975C73.9668 49.1473 74.7067 46.8109 76.4518 44.7883C78.2658 42.7589 80.6096 41.1583 83.4832 39.9863C86.35 38.7464 89.2644 37.9822 92.2265 37.6936C98.0817 37.1232 103.081 37.734 107.225 39.526C111.432 41.2433 114.642 43.7781 116.855 47.1305C119.138 50.4762 120.493 54.2896 120.922 58.5706C121.153 60.8811 121.161 63.0417 120.945 65.0526C120.798 67.0568 120.468 68.6328 119.957 69.7804C121.003 70.5019 121.822 71.3828 122.413 72.4231C123.073 73.4566 123.461 74.551 123.576 75.7062C123.774 77.6769 123.255 79.4428 122.02 81.004C120.854 82.5586 119.169 83.4432 116.965 83.658C115.311 83.819 113.944 83.712 112.863 83.337C111.782 82.962 110.606 82.3219 109.332 81.4167C107.712 82.6037 105.893 83.5358 103.874 84.2128C101.924 84.8831 99.4334 85.3658 96.4025 85.6611ZM97.4384 75.1649C98.885 75.0239 99.991 74.6074 100.756 73.9153C101.591 73.2165 101.964 72.4254 101.875 71.542C101.787 70.6586 101.264 69.9547 100.307 69.4304C99.4195 68.8993 98.2523 68.7043 96.8057 68.8452C95.3591 68.9861 94.2187 69.406 93.3844 70.1048C92.619 70.7969 92.2806 71.5847 92.369 72.4681C92.4574 73.3515 92.9456 74.0587 93.8334 74.5897C94.7902 75.1141 95.9918 75.3058 97.4384 75.1649Z" fill="white"/>
<path d="M141.536 81.0583C138.092 81.3939 135.383 80.3884 133.409 78.0419C131.435 75.6954 129.893 72.106 128.784 67.2738C127.736 62.3669 126.77 55.4964 125.885 46.6625C125.035 38.1683 124.579 31.5227 124.516 26.7257C124.522 21.922 125.243 18.0093 126.679 14.9875C128.185 11.9589 130.797 10.2635 134.517 9.9011C138.237 9.53872 141.1 10.7007 143.108 13.3869C145.185 16.0665 146.668 19.7645 147.558 24.481C148.516 29.1907 149.42 35.7927 150.271 44.2869C151.107 52.6451 151.405 59.4434 151.165 64.6817C150.986 69.8453 150.131 73.8055 148.598 76.5622C147.059 79.2509 144.705 80.7496 141.536 81.0583Z" fill="white"/>
<path d="M182.949 77.2297C177.852 77.7263 173.241 77.1805 169.118 75.5924C164.994 74.0042 161.653 71.5508 159.095 68.2319C156.599 64.8384 155.127 60.8992 154.678 56.4143C154.235 51.9973 154.895 47.8161 156.656 43.8706C158.486 39.9185 161.218 36.6332 164.851 34.015C168.484 31.3967 172.746 29.8493 177.637 29.3729C182.045 28.9434 186.026 29.4476 189.578 30.8856C193.13 32.3235 195.948 34.4163 198.032 37.1638C200.108 39.8434 201.303 42.7461 201.616 45.8719C202.126 50.9684 200.537 54.8971 196.849 57.658C193.223 60.3442 188.723 61.949 183.35 62.4725C179.768 62.8214 176.693 62.675 174.125 62.0332C176.525 65.1616 180.101 66.4943 184.854 66.0312C186.783 65.8433 188.826 65.4042 190.982 64.7138C191.788 64.4294 192.57 64.2503 193.328 64.1764C194.844 64.0288 196.087 64.2851 197.057 64.9454C198.096 65.5989 198.68 66.5712 198.81 67.8623C199.02 69.9689 197.895 71.9311 195.434 73.7491C192.966 75.4991 188.805 76.6593 182.949 77.2297ZM173.19 49.5676C173.905 50.4585 174.803 51.0915 175.884 51.4665C177.027 51.7668 178.253 51.8533 179.562 51.7258C181.077 51.5781 182.352 51.1109 183.386 50.3239C184.489 49.5303 184.986 48.5899 184.877 47.5026C184.755 46.2795 184.133 45.2765 183.011 44.4938C181.958 43.7044 180.502 43.4002 178.642 43.5814C176.782 43.7626 175.359 44.4845 174.372 45.7471C173.448 46.935 173.054 48.2085 173.19 49.5676Z" fill="white"/>
<path d="M243.5 7.68194C243.5 11.642 240.244 14.8639 236.213 14.8639C232.182 14.8639 228.926 11.642 228.926 7.68194C228.926 3.72186 232.182 0.5 236.213 0.5C240.244 0.5 243.5 3.72186 243.5 7.68194Z" stroke="#007200"/>
<path d="M232.52 12.2911V3.49286H236.474C237.269 3.49286 237.874 3.57288 238.287 3.73292C238.701 3.88896 239.032 4.16703 239.279 4.56713C239.526 4.96723 239.65 5.40934 239.65 5.89347C239.65 6.51762 239.445 7.04376 239.036 7.47186C238.626 7.89997 237.993 8.17204 237.137 8.28807C237.45 8.43611 237.687 8.58214 237.849 8.72618C238.194 9.03826 238.521 9.42836 238.829 9.89648L240.38 12.2911H238.896L237.715 10.4606C237.371 9.93249 237.087 9.52838 236.864 9.24831C236.641 8.96824 236.44 8.77219 236.261 8.66016C236.087 8.54814 235.909 8.47012 235.726 8.42611C235.592 8.3981 235.373 8.38409 235.069 8.38409H233.7V12.2911H232.52ZM233.7 7.37584H236.237C236.777 7.37584 237.198 7.32183 237.503 7.2138C237.807 7.10177 238.038 6.92573 238.196 6.68567C238.354 6.4416 238.433 6.17754 238.433 5.89347C238.433 5.47736 238.279 5.13527 237.971 4.86721C237.667 4.59914 237.184 4.4651 236.523 4.4651H233.7V7.37584Z" fill="#007200"/>
</svg>
