<svg width="280" height="218" viewBox="0 0 280 218" fill="none" xmlns="http://www.w3.org/2000/svg">
<path d="M31.7513 164.235C55.9331 203.846 112.203 239.074 182.519 201.719C252.836 164.364 308.373 83.8763 253.787 35.5659C199.202 -12.7444 58.9394 -5.61119 20.5211 22.4798C-17.8972 50.5707 7.56952 124.623 31.7513 164.235Z" fill="white"/>
<path d="M111.563 123.323C112.045 128.211 110.362 131.968 106.514 134.592C102.732 137.135 96.3144 139.079 87.2615 140.424C87.908 143.95 88.5089 148.527 89.0641 154.156C89.8385 162.008 90.0157 168.348 89.5958 173.176C89.2426 177.923 88.1438 181.547 86.2994 184.048C84.4478 186.474 81.6731 187.871 77.9752 188.237C74.3513 188.595 71.461 187.685 69.3044 185.505C67.1477 183.325 65.4695 179.938 64.2696 175.345C63.0698 170.752 62.09 164.603 61.3302 156.9C60.8188 151.715 60.4767 147.112 60.3041 143.091C54.1364 143.402 49.1192 143.262 45.2524 142.672C41.4523 142.001 38.5661 140.754 36.5939 138.929C34.6217 137.105 33.4675 134.489 33.1315 131.082C32.7223 126.934 33.8061 123.536 36.3826 120.888C38.9592 118.24 43.0104 116.156 48.5362 114.637C54.0619 113.118 61.3732 111.909 70.4699 111.009C79.6406 110.102 87.1208 109.848 92.9104 110.247C98.7001 110.647 103.154 111.889 106.272 113.974C109.39 116.059 111.154 119.175 111.563 123.323Z" fill="#007200"/>
<path d="M134.191 183.012C128.873 183.613 123.994 182.973 119.551 181.094C115.183 179.208 111.619 176.382 108.858 172.616C106.163 168.769 104.497 164.372 103.86 159.424C103.296 154.469 104.004 149.911 105.984 145.751C107.963 141.592 110.947 138.155 114.937 135.442C119 132.721 123.694 131.098 129.018 130.571C134.195 130.059 138.964 130.709 143.325 132.521C147.76 134.326 151.395 137.108 154.23 140.866C157.065 144.624 158.801 148.977 159.439 153.925C159.987 158.733 159.276 163.253 157.304 167.487C155.324 171.647 152.307 175.124 148.251 177.918C144.269 180.706 139.583 182.403 134.191 183.012ZM132.924 166.758C134.921 166.56 136.582 165.61 137.908 163.909C139.233 162.207 139.794 160.319 139.589 158.245C139.385 156.171 138.47 154.467 136.845 153.132C135.212 151.722 133.397 151.117 131.401 151.314C129.404 151.512 127.742 152.461 126.417 154.163C125.084 155.791 124.519 157.642 124.724 159.716C124.929 161.79 125.847 163.531 127.48 164.94C129.112 166.349 130.927 166.955 132.924 166.758Z" fill="#007200"/>
<path d="M178.263 194.582C174.639 194.941 171.831 193.349 169.839 189.806C167.854 186.338 166.446 182.289 165.616 177.659C164.86 173.022 164.106 166.889 163.353 159.26C162.776 153.408 162.49 148.238 162.496 143.75C162.575 139.255 163.341 135.29 164.795 131.855C166.248 128.421 168.787 126.524 172.411 126.166C176.183 125.793 179.065 127.003 181.059 129.798C182.635 128.37 184.645 127.162 187.086 126.172C189.594 125.101 192.254 124.427 195.064 124.149C199.797 123.681 204.278 124.434 208.505 126.409C212.732 128.384 216.227 131.255 218.988 135.02C221.749 138.786 223.363 143.039 223.831 147.779C224.299 152.52 223.55 157.044 221.585 161.352C219.613 165.586 216.747 169.085 212.987 171.851C209.227 174.616 204.981 176.233 200.247 176.701C197.363 176.986 194.627 176.883 192.039 176.391C189.445 175.825 187.194 174.963 185.287 173.806C185.755 178.546 185.969 182.227 185.929 184.849C185.888 187.47 185.283 189.662 184.113 191.423C183.023 193.251 181.074 194.304 178.263 194.582ZM197.874 158.313C199.796 158.122 201.391 157.254 202.657 155.708C203.99 154.08 204.562 152.303 204.372 150.377C204.182 148.452 203.278 146.858 201.66 145.597C200.109 144.255 198.372 143.679 196.449 143.869C194.526 144.059 192.898 144.968 191.565 146.596C190.299 148.142 189.76 149.878 189.95 151.804C190.14 153.73 191.011 155.364 192.562 156.706C194.18 157.967 195.951 158.503 197.874 158.313Z" fill="#007200"/>
<path d="M54.1272 103.861C48.9891 104.369 43.9765 104.156 39.0893 103.223C34.2722 102.203 30.2577 100.553 27.0457 98.273C23.826 95.9147 22.0508 93.0593 21.7203 89.7067C21.405 86.51 22.1283 83.8798 23.89 81.8161C25.6518 79.7524 28.0118 78.5742 30.9701 78.2816C32.9163 78.0891 34.617 78.1965 36.0721 78.6037C37.5974 78.9252 39.2625 79.469 41.0674 80.2352C42.3745 80.7358 43.4755 81.1386 44.3703 81.4438C45.3352 81.6632 46.3237 81.7229 47.3358 81.6228C49.9048 81.3688 51.0894 80.2281 50.8895 78.201C50.8126 77.4213 50.2023 76.8125 49.0586 76.3745C47.9072 75.8586 45.997 75.2208 43.328 74.4613C38.5581 73.1224 34.6483 71.7377 31.5987 70.3073C26.8999 68.0953 23.5403 65.5146 21.5201 62.5653C19.5777 59.6083 18.3759 55.7908 17.9146 51.1127C17.4687 46.5906 18.4899 42.1989 20.9783 37.9377C23.459 33.5985 27.0713 29.974 31.8154 27.0642C36.5594 24.1545 41.8897 22.407 47.8063 21.8218C53.5672 21.252 58.9105 21.6289 63.8362 22.9525C68.832 24.1904 72.846 26.2339 75.8783 29.0831C78.9807 31.8467 80.7165 35.0997 81.0855 38.8421C81.5083 43.1303 80.5429 46.493 78.1891 48.9302C75.9055 51.2817 73.2067 52.6115 70.0927 52.9195C67.5236 53.1736 65.562 53.2101 64.2078 53.0292C62.9315 52.8405 61.6436 52.5349 60.3442 52.1123C59.2937 51.8225 58.4104 51.6343 57.6944 51.5477C56.9707 51.3831 55.986 51.3624 54.7404 51.4856C53.7284 51.5857 52.7899 52.0328 51.9249 52.8269C51.13 53.5353 50.7903 54.4743 50.9056 55.6438C50.9901 56.5015 51.5692 57.1921 52.6428 57.7158C53.7086 58.1614 54.9263 58.5527 56.2959 58.8896C57.6655 59.2265 58.6343 59.485 59.2023 59.665C66.7037 61.5998 72.3363 64.1131 76.0999 67.2049C79.8559 70.2187 81.9992 74.4155 82.5296 79.7953C83.1831 86.4225 81.0086 91.873 76.006 96.1467C71.0735 100.335 63.7806 102.906 54.1272 103.861Z" fill="#007200"/>
<path d="M109.311 98.2849C103.239 98.8855 98.1217 98.0139 93.9601 95.67C89.7908 93.2481 87.4487 89.4253 86.9336 84.2015C86.4877 79.6794 88.1192 75.8965 91.8281 72.8529C95.5371 69.8093 100.35 67.995 106.266 67.4098C108.446 67.1942 110.49 67.1889 112.396 67.394C114.373 67.5133 115.735 67.7723 116.482 68.1708C116.29 66.2216 115.315 64.7041 113.557 63.6183C111.791 62.4546 109.235 62.0382 105.887 62.3693C104.408 62.5156 103.213 62.7519 102.302 63.0782C101.391 63.4045 100.413 63.8555 99.3695 64.4311C98.3258 65.0067 97.3483 65.4576 96.4372 65.7839C95.6039 66.1025 94.4477 66.335 92.9685 66.4813C90.4773 66.7276 88.4696 66.2964 86.9453 65.1875C85.4133 64.0007 84.5166 62.0818 84.2552 59.4309C83.9554 56.3902 84.7915 53.7094 86.7638 51.3887C88.8138 49.0603 91.4627 47.2238 94.7103 45.8791C97.9502 44.4565 101.244 43.5796 104.591 43.2485C111.209 42.594 116.859 43.2948 121.542 45.3509C126.296 47.3213 129.924 50.2297 132.425 54.0761C135.005 57.9149 136.537 62.2902 137.021 67.2022C137.283 69.8531 137.291 72.3321 137.047 74.6394C136.881 76.9389 136.509 78.7471 135.931 80.0639C137.114 80.8917 138.039 81.9024 138.707 83.096C139.452 84.2819 139.891 85.5375 140.021 86.863C140.244 89.124 139.658 91.1502 138.262 92.9415C136.945 94.7252 135.04 95.7402 132.549 95.9866C130.681 96.1713 129.136 96.0486 127.914 95.6183C126.693 95.188 125.362 94.4536 123.924 93.415C122.093 94.777 120.036 95.8464 117.755 96.6231C115.551 97.3922 112.736 97.9461 109.311 98.2849ZM110.482 86.2419C112.116 86.0802 113.366 85.6023 114.231 84.8082C115.174 84.0063 115.596 83.0987 115.496 82.0851C115.396 81.0715 114.805 80.2639 113.724 79.6623C112.721 79.053 111.401 78.8292 109.767 78.9909C108.132 79.1526 106.843 79.6343 105.9 80.4361C105.035 81.2302 104.653 82.1341 104.753 83.1476C104.852 84.1612 105.404 84.9727 106.408 85.582C107.489 86.1836 108.847 86.4035 110.482 86.2419Z" fill="#007200"/>
<path d="M160.318 93.0038C156.426 93.3888 153.364 92.2352 151.134 89.5429C148.903 86.8506 147.16 82.7322 145.906 77.1879C144.722 71.5578 143.63 63.6749 142.631 53.5391C141.67 43.7932 141.154 36.1683 141.083 30.6643C141.09 25.1527 141.905 20.6633 143.528 17.1962C145.229 13.7214 148.182 11.7761 152.386 11.3603C156.59 10.9445 159.826 12.2777 162.095 15.3598C164.442 18.4342 166.118 22.6772 167.124 28.0888C168.207 33.4926 169.229 41.0675 170.19 50.8134C171.135 60.4034 171.472 68.2036 171.2 74.2138C170.998 80.1383 170.031 84.6821 168.299 87.8451C166.56 90.9301 163.899 92.6497 160.318 93.0038Z" fill="#007200"/>
<path d="M207.122 88.6109C201.361 89.1807 196.15 88.5545 191.49 86.7324C186.829 84.9102 183.054 82.0951 180.163 78.2872C177.342 74.3936 175.678 69.8739 175.17 64.7281C174.671 59.6602 175.416 54.8628 177.406 50.3359C179.475 45.8012 182.562 42.0319 186.668 39.0278C190.774 36.0237 195.59 34.2483 201.118 33.7016C206.1 33.2088 210.598 33.7873 214.613 35.4372C218.627 37.0871 221.812 39.4882 224.167 42.6406C226.514 45.7151 227.864 49.0455 228.218 52.6321C228.794 58.4796 226.998 62.9873 222.83 66.155C218.732 69.2371 213.647 71.0784 207.574 71.679C203.526 72.0794 200.051 71.9114 197.148 71.175C199.861 74.7644 203.902 76.2935 209.274 75.7622C211.454 75.5466 213.762 75.0427 216.2 74.2506C217.111 73.9243 217.995 73.7188 218.851 73.6341C220.564 73.4647 221.968 73.7588 223.065 74.5163C224.24 75.2662 224.9 76.3818 225.046 77.8632C225.284 80.2802 224.013 82.5316 221.231 84.6174C218.442 86.6253 213.739 87.9565 207.122 88.6109ZM196.092 56.8723C196.9 57.8946 197.915 58.6208 199.137 59.0511C200.428 59.3957 201.814 59.4949 203.293 59.3486C205.006 59.1792 206.446 58.643 207.615 57.7402C208.861 56.8296 209.423 55.7506 209.3 54.5031C209.162 53.0997 208.459 51.9489 207.191 51.0508C206.001 50.1451 204.355 49.7961 202.253 50.004C200.152 50.2119 198.543 51.0402 197.428 52.4888C196.383 53.8518 195.938 55.313 196.092 56.8723Z" fill="#007200"/>
<path d="M275.618 8.81402C275.618 13.4064 271.901 17.128 267.317 17.128C262.733 17.128 259.016 13.4064 259.016 8.81402C259.016 4.2216 262.733 0.5 267.317 0.5C271.901 0.5 275.618 4.2216 275.618 8.81402Z" stroke="white"/>
<path d="M263.144 14.1024V4.00757H267.613C268.511 4.00757 269.194 4.09938 269.662 4.28301C270.129 4.46204 270.503 4.78109 270.782 5.24015C271.062 5.69922 271.202 6.20648 271.202 6.76195C271.202 7.47809 270.97 8.08176 270.507 8.57295C270.044 9.06415 269.329 9.37631 268.362 9.50944C268.715 9.6793 268.983 9.84685 269.167 10.0121C269.556 10.3702 269.925 10.8178 270.273 11.3549L272.027 14.1024H270.349L269.015 12.0022C268.626 11.3962 268.305 10.9325 268.053 10.6112C267.801 10.2899 267.574 10.0649 267.372 9.93637C267.175 9.80783 266.973 9.71832 266.767 9.66782C266.616 9.63568 266.368 9.61962 266.024 9.61962H264.477V14.1024H263.144ZM264.477 8.46278H267.345C267.954 8.46278 268.431 8.4008 268.775 8.27686C269.118 8.14832 269.38 7.94633 269.558 7.67089C269.737 7.39087 269.827 7.08788 269.827 6.76195C269.827 6.28452 269.652 5.89202 269.304 5.58445C268.96 5.27688 268.415 5.12309 267.668 5.12309H264.477V8.46278Z" fill="white"/>
</svg>
