<svg width="256" height="256" viewBox="0 0 256 256" fill="none" xmlns="http://www.w3.org/2000/svg">
<g transform="translate(30,20)">
<path d="M83.3953 98.4831C83.8219 102.744 82.3326 106.018 78.9273 108.305C75.581 110.522 69.9027 112.216 61.8923 113.387C62.4644 116.461 62.996 120.45 63.4873 125.357C64.1726 132.199 64.3294 137.725 63.9578 141.933C63.6453 146.07 62.673 149.229 61.0411 151.408C59.4027 153.524 56.9475 154.741 53.6754 155.059C50.4689 155.372 47.9114 154.578 46.0031 152.678C44.0948 150.778 42.6098 147.827 41.5481 143.823C40.4865 139.82 39.6195 134.462 38.9472 127.748C38.4947 123.229 38.1921 119.217 38.0393 115.712C32.5819 115.983 28.1424 115.861 24.7209 115.347C21.3584 114.763 18.8046 113.675 17.0595 112.085C15.3144 110.495 14.2932 108.215 13.9958 105.246C13.6338 101.631 14.5927 98.6692 16.8726 96.3611C19.1525 94.053 22.7371 92.237 27.6265 90.9131C32.516 89.5893 38.9853 88.5351 47.0344 87.7508C55.149 86.96 61.7678 86.7387 66.8908 87.0869C72.0137 87.4351 75.9547 88.5177 78.7137 90.3348C81.4728 92.1519 83.0333 94.868 83.3953 98.4831Z" fill="white"/>
<path d="M103.417 150.506C98.7122 151.029 94.3944 150.472 90.4639 148.834C86.5988 147.19 83.4447 144.727 81.0015 141.445C78.6173 138.093 77.1432 134.26 76.5792 129.947C76.0807 125.629 76.7071 121.656 78.4586 118.031C80.2101 114.405 82.8507 111.41 86.3804 109.046C89.9755 106.674 94.1289 105.259 98.8407 104.8C103.421 104.354 107.641 104.92 111.5 106.5C115.424 108.073 118.64 110.497 121.149 113.773C123.657 117.049 125.194 120.843 125.758 125.155C126.243 129.345 125.614 133.285 123.869 136.975C122.117 140.6 119.447 143.631 115.858 146.067C112.335 148.496 108.188 149.975 103.417 150.506ZM102.296 136.339C104.063 136.167 105.533 135.339 106.706 133.856C107.879 132.373 108.375 130.728 108.194 128.92C108.013 127.112 107.204 125.627 105.766 124.463C104.321 123.235 102.715 122.707 100.948 122.879C99.1815 123.052 97.7115 123.879 96.5385 125.362C95.359 126.781 94.8597 128.394 95.0407 130.202C95.2217 132.009 96.0345 133.527 97.4791 134.755C98.9236 135.983 100.529 136.511 102.296 136.339Z" fill="white"/>
<path d="M142.414 160.59C139.208 160.902 136.723 159.515 134.96 156.427C133.204 153.404 131.958 149.875 131.224 145.84C130.555 141.799 129.887 136.453 129.222 129.804C128.711 124.704 128.458 120.199 128.463 116.287C128.533 112.369 129.211 108.913 130.497 105.92C131.783 102.926 134.03 101.273 137.236 100.961C140.574 100.636 143.124 101.691 144.888 104.126C146.283 102.882 148.061 101.829 150.221 100.967C152.441 100.033 154.794 99.4455 157.28 99.2032C161.469 98.795 165.433 99.4517 169.174 101.173C172.914 102.895 176.006 105.396 178.449 108.678C180.893 111.96 182.321 115.667 182.735 119.798C183.148 123.93 182.486 127.873 180.747 131.628C179.002 135.318 176.466 138.368 173.14 140.778C169.813 143.188 166.055 144.597 161.867 145.005C159.315 145.254 156.894 145.164 154.604 144.735C152.308 144.242 150.317 143.491 148.63 142.482C149.043 146.613 149.233 149.822 149.197 152.107C149.162 154.392 148.626 156.302 147.59 157.837C146.626 159.43 144.901 160.348 142.414 160.59ZM159.766 128.979C161.468 128.813 162.879 128.056 163.999 126.709C165.179 125.29 165.685 123.741 165.517 122.063C165.349 120.384 164.549 118.996 163.117 117.897C161.744 116.727 160.207 116.225 158.506 116.39C156.804 116.556 155.364 117.349 154.184 118.767C153.064 120.115 152.588 121.628 152.756 123.306C152.924 124.985 153.694 126.409 155.067 127.579C156.498 128.678 158.065 129.145 159.766 128.979Z" fill="white"/>
<path d="M32.5736 81.521C28.0273 81.9639 23.5918 81.7784 19.2674 80.9646C15.0051 80.0762 11.4529 78.6382 8.61074 76.6508C5.76183 74.5954 4.19111 72.1067 3.89859 69.1847C3.61968 66.3986 4.25965 64.1062 5.8185 62.3076C7.37736 60.5089 9.46559 59.4821 12.0832 59.2271C13.8053 59.0593 15.3102 59.1528 16.5977 59.5077C17.9473 59.7879 19.4207 60.2619 21.0178 60.9298C22.1744 61.366 23.1485 61.7171 23.9403 61.9831C24.7941 62.1743 25.6688 62.2264 26.5643 62.1391C28.8375 61.9177 29.8856 60.9235 29.7088 59.1568C29.6407 58.4772 29.1007 57.9466 28.0887 57.5649C27.0699 57.1152 25.3797 56.5594 23.0181 55.8975C18.7974 54.7305 15.3379 53.5236 12.6395 52.277C8.48174 50.3491 5.50909 48.0999 3.72151 45.5294C2.00282 42.9522 0.939391 39.6249 0.531225 35.5477C0.136664 31.6064 1.04028 27.7788 3.24208 24.0649C5.43707 20.283 8.63343 17.1241 12.8312 14.588C17.0289 12.052 21.7454 10.529 26.9806 10.0189C32.0781 9.52234 36.8061 9.85083 41.1645 11.0044C45.585 12.0833 49.1368 13.8644 51.8199 16.3476C54.5651 18.7562 56.1009 21.5914 56.4274 24.8532C56.8016 28.5906 55.9473 31.5214 53.8646 33.6456C51.8439 35.695 49.4559 36.854 46.7005 37.1224C44.4273 37.3439 42.6916 37.3757 41.4934 37.218C40.364 37.0536 39.2244 36.7872 38.0746 36.4189C37.1451 36.1664 36.3636 36.0024 35.73 35.9269C35.0897 35.7834 34.2184 35.7653 33.1162 35.8727C32.2207 35.96 31.3903 36.3496 30.6249 37.0417C29.9216 37.6592 29.621 38.4776 29.723 39.4969C29.7978 40.2443 30.3102 40.8463 31.2601 41.3027C32.2032 41.6911 33.2807 42.0321 34.4926 42.3258C35.7044 42.6194 36.5617 42.8447 37.0643 43.0016C43.7019 44.6879 48.6858 46.8784 52.016 49.573C55.3395 52.1998 57.2359 55.8575 57.7053 60.5463C58.2835 66.3223 56.3594 71.0727 51.9329 74.7976C47.5684 78.4477 41.1154 80.6888 32.5736 81.521Z" fill="white"/>
<path d="M81.4025 76.6611C76.0294 77.1846 71.5018 76.4249 67.8194 74.382C64.1303 72.2713 62.0578 68.9394 61.6021 64.3866C61.2075 60.4453 62.6511 57.1483 65.933 54.4956C69.2148 51.8429 73.4733 50.2616 78.7086 49.7516C80.6373 49.5637 82.4454 49.5591 84.1326 49.7378C85.8819 49.8418 87.087 50.0675 87.7478 50.4148C87.5777 48.716 86.715 47.3934 85.1595 46.4471C83.5973 45.4328 81.3352 45.07 78.3731 45.3585C77.0643 45.486 76.0068 45.692 75.2006 45.9764C74.3944 46.2608 73.5295 46.6538 72.6059 47.1555C71.6824 47.6571 70.8175 48.0502 70.0113 48.3346C69.2739 48.6122 68.2509 48.8148 66.942 48.9423C64.7377 49.1571 62.9612 48.7812 61.6124 47.8148C60.2569 46.7803 59.4634 45.1079 59.2321 42.7975C58.9668 40.1473 59.7067 37.8109 61.4518 35.7883C63.2658 33.7589 65.6096 32.1583 68.4832 30.9863C71.35 29.7464 74.2644 28.9822 77.2265 28.6936C83.0817 28.1232 88.0813 28.734 92.2255 30.526C96.4317 32.2433 99.6416 34.7781 101.855 38.1305C104.138 41.4762 105.493 45.2896 105.922 49.5706C106.153 51.8811 106.161 54.0417 105.945 56.0526C105.798 58.0568 105.468 59.6328 104.957 60.7804C106.003 61.5019 106.822 62.3828 107.413 63.4231C108.073 64.4566 108.461 65.551 108.576 66.7062C108.774 68.6769 108.255 70.4428 107.02 72.004C105.854 73.5586 104.169 74.4432 101.965 74.658C100.311 74.819 98.9443 74.712 97.8634 74.337C96.7825 73.962 95.6055 73.3219 94.3324 72.4167C92.7123 73.6037 90.8928 74.5358 88.8739 75.2128C86.9239 75.8831 84.4334 76.3658 81.4025 76.6611ZM82.4384 66.1649C83.885 66.0239 84.991 65.6074 85.7563 64.9153C86.5906 64.2165 86.9635 63.4254 86.8751 62.542C86.7867 61.6586 86.2641 60.9547 85.3074 60.4304C84.4195 59.8993 83.2523 59.7043 81.8057 59.8452C80.3591 59.9861 79.2187 60.406 78.3844 61.1048C77.619 61.7969 77.2806 62.5847 77.369 63.4681C77.4574 64.3515 77.9456 65.0587 78.8334 65.5897C79.7902 66.1141 80.9918 66.3058 82.4384 66.1649Z" fill="white"/>
<path d="M126.536 72.0583C123.092 72.3939 120.383 71.3884 118.409 69.0419C116.435 66.6954 114.893 63.106 113.784 58.2738C112.736 53.3669 111.77 46.4964 110.885 37.6625C110.035 29.1683 109.579 22.5227 109.516 17.7257C109.522 12.922 110.243 9.00927 111.679 5.98745C113.185 2.95893 115.797 1.26348 119.517 0.901099C123.237 0.538717 126.1 1.70066 128.108 4.38693C130.185 7.06649 131.668 10.7645 132.558 15.481C133.516 20.1907 134.42 26.7927 135.271 35.2869C136.107 43.6451 136.405 50.4434 136.165 55.6817C135.986 60.8453 135.131 64.8055 133.598 67.5622C132.059 70.2509 129.705 71.7496 126.536 72.0583Z" fill="white"/>
<path d="M167.949 68.2297C162.852 68.7263 158.241 68.1805 154.118 66.5924C149.994 65.0042 146.653 62.5508 144.095 59.2319C141.599 55.8384 140.127 51.8992 139.678 47.4143C139.235 42.9973 139.895 38.8161 141.656 34.8706C143.486 30.9185 146.218 27.6332 149.851 25.015C153.484 22.3967 157.746 20.8493 162.637 20.3729C167.045 19.9434 171.026 20.4476 174.578 21.8856C178.13 23.3235 180.948 25.4163 183.032 28.1638C185.108 30.8434 186.303 33.7461 186.616 36.8719C187.126 41.9684 185.537 45.8971 181.849 48.658C178.223 51.3442 173.723 52.949 168.35 53.4725C164.768 53.8214 161.693 53.675 159.125 53.0332C161.525 56.1616 165.101 57.4943 169.854 57.0312C171.783 56.8433 173.826 56.4042 175.982 55.7138C176.788 55.4294 177.57 55.2503 178.328 55.1764C179.844 55.0288 181.087 55.2851 182.057 55.9454C183.096 56.5989 183.68 57.5712 183.81 58.8623C184.02 60.9689 182.895 62.9311 180.434 64.7491C177.966 66.4991 173.805 67.6593 167.949 68.2297ZM158.19 40.5676C158.905 41.4585 159.803 42.0915 160.884 42.4665C162.027 42.7668 163.253 42.8533 164.562 42.7258C166.077 42.5781 167.352 42.1109 168.386 41.3239C169.489 40.5303 169.986 39.5899 169.877 38.5026C169.755 37.2795 169.133 36.2765 168.011 35.4938C166.958 34.7044 165.502 34.4002 163.642 34.5814C161.782 34.7626 160.359 35.4845 159.372 36.7471C158.448 37.935 158.054 39.2085 158.19 40.5676Z" fill="white"/>
</g>
</svg>