<svg width="470" height="400" viewBox="0 0 470 400" fill="none" xmlns="http://www.w3.org/2000/svg">
<path d="M53.5 308.5C94.7157 375.913 190.623 435.865 310.47 372.293C430.318 308.72 524.976 171.744 431.94 89.5273C338.904 7.31104 99.8395 19.4506 34.3591 67.2568C-31.1214 115.063 12.2843 241.087 53.5 308.5Z" fill="white"/>
<path d="M189.532 238.875C190.354 247.194 187.485 253.587 180.925 258.054C174.48 262.382 163.542 265.69 148.112 267.978C149.214 273.978 150.238 281.769 151.184 291.349C152.504 304.71 152.806 315.5 152.091 323.716C151.489 331.795 149.616 337.962 146.472 342.218C143.316 346.349 138.587 348.725 132.285 349.348C126.108 349.958 121.182 348.408 117.506 344.698C113.83 340.988 110.97 335.225 108.925 327.408C106.88 319.591 105.21 309.128 103.915 296.018C103.043 287.195 102.46 279.361 102.166 272.516C91.6535 273.046 83.1021 272.809 76.5115 271.805C70.0345 270.663 65.1153 268.539 61.7538 265.435C58.3923 262.33 56.4252 257.879 55.8524 252.08C55.1551 245.021 57.0022 239.238 61.3938 234.731C65.7853 230.225 72.6902 226.679 82.1083 224.094C91.5265 221.509 103.988 219.45 119.492 217.919C135.123 216.375 147.872 215.943 157.74 216.622C167.608 217.302 175.199 219.416 180.514 222.964C185.829 226.512 188.834 231.816 189.532 238.875ZM228.099 340.456C219.036 341.478 210.718 340.391 203.147 337.193C195.702 333.982 189.627 329.173 184.921 322.765C180.328 316.218 177.489 308.734 176.402 300.313C175.442 291.88 176.649 284.124 180.023 277.045C183.396 269.965 188.483 264.117 195.282 259.5C202.207 254.87 210.207 252.106 219.283 251.21C228.107 250.338 236.235 251.445 243.667 254.529C251.226 257.601 257.421 262.335 262.254 268.731C267.086 275.127 270.045 282.535 271.131 290.955C272.067 299.136 270.854 306.83 267.493 314.035C264.119 321.114 258.976 327.032 252.063 331.788C245.276 336.531 237.288 339.421 228.099 340.456ZM225.939 312.794C229.343 312.458 232.174 310.842 234.434 307.945C236.693 305.049 237.649 301.836 237.3 298.307C236.952 294.777 235.392 291.877 232.622 289.605C229.839 287.207 226.747 286.176 223.343 286.512C219.94 286.848 217.108 288.464 214.849 291.36C212.577 294.13 211.615 297.28 211.964 300.81C212.312 304.339 213.878 307.303 216.66 309.701C219.443 312.099 222.536 313.13 225.939 312.794ZM303.216 360.147C297.04 360.757 292.253 358.047 288.858 352.019C285.474 346.116 283.075 339.225 281.66 331.346C280.372 323.455 279.086 313.017 277.804 300.034C276.82 290.075 276.333 281.277 276.342 273.639C276.477 265.989 277.783 259.241 280.261 253.396C282.738 247.551 287.065 244.323 293.242 243.713C299.671 243.078 304.584 245.138 307.981 249.894C310.668 247.465 314.093 245.408 318.254 243.724C322.529 241.902 327.061 240.754 331.851 240.281C339.919 239.484 347.555 240.766 354.761 244.127C361.966 247.489 367.922 252.374 372.628 258.782C377.334 265.19 380.085 272.428 380.882 280.496C381.679 288.563 380.403 296.263 377.054 303.594C373.693 310.799 368.808 316.755 362.4 321.461C355.991 326.167 348.754 328.919 340.686 329.716C335.77 330.201 331.107 330.026 326.697 329.188C322.274 328.225 318.438 326.758 315.188 324.788C315.985 332.856 316.349 339.12 316.281 343.582C316.213 348.044 315.181 351.773 313.186 354.77C311.329 357.881 308.006 359.673 303.216 360.147ZM336.64 298.422C339.918 298.098 342.635 296.62 344.794 293.989C347.066 291.219 348.04 288.195 347.716 284.918C347.393 281.64 345.852 278.928 343.094 276.783C340.45 274.498 337.489 273.518 334.212 273.841C330.935 274.165 328.16 275.712 325.888 278.482C323.729 281.114 322.812 284.068 323.136 287.346C323.46 290.623 324.944 293.404 327.588 295.688C330.345 297.834 333.363 298.746 336.64 298.422Z" fill="#007200"/>
<path d="M91.6377 205.754C82.8803 206.619 74.3367 206.257 66.0068 204.668C57.7966 202.933 50.9542 200.125 45.4796 196.244C39.992 192.231 36.9664 187.371 36.403 181.666C35.8657 176.226 37.0984 171.75 40.1011 168.237C43.1039 164.725 47.1263 162.72 52.1684 162.222C55.4856 161.895 58.3843 162.077 60.8644 162.77C63.4641 163.318 66.3021 164.243 69.3785 165.547C71.6063 166.399 73.4828 167.085 75.0079 167.604C76.6525 167.977 78.3373 168.079 80.0623 167.909C84.441 167.476 86.46 165.535 86.1193 162.085C85.9882 160.758 84.948 159.722 82.9987 158.977C81.0362 158.099 77.7805 157.013 73.2314 155.721C65.1015 153.442 58.4376 151.086 53.2399 148.651C45.2311 144.887 39.5051 140.495 36.0619 135.476C32.7513 130.443 30.7029 123.947 29.9166 115.985C29.1566 108.289 30.8972 100.816 35.1384 93.5637C39.3664 86.1791 45.5233 80.0108 53.6092 75.0588C61.695 70.1069 70.78 67.1329 80.8643 66.137C90.6832 65.1674 99.7903 65.8088 108.186 68.0613C116.701 70.168 123.542 73.6458 128.71 78.4947C133.998 83.1978 136.957 88.7338 137.586 95.1028C138.306 102.401 136.661 108.123 132.649 112.271C128.757 116.273 124.157 118.536 118.849 119.06C114.471 119.493 111.127 119.555 108.819 119.247C106.644 118.926 104.449 118.406 102.234 117.686C100.443 117.193 98.938 116.873 97.7176 116.726C96.4841 116.446 94.8059 116.41 92.6828 116.62C90.9579 116.79 89.3583 117.551 87.8839 118.903C86.5292 120.108 85.9501 121.706 86.1467 123.697C86.2908 125.156 87.2778 126.331 89.1075 127.223C90.9242 127.981 92.9997 128.647 95.334 129.22C97.6683 129.794 99.3196 130.234 100.288 130.54C113.073 133.833 122.673 138.11 129.088 143.372C135.49 148.501 139.143 155.643 140.047 164.798C141.161 176.077 137.454 185.353 128.928 192.626C120.521 199.753 108.091 204.129 91.6377 205.754ZM185.693 196.265C175.344 197.287 166.622 195.803 159.529 191.814C152.423 187.693 148.431 181.187 147.553 172.297C146.793 164.601 149.574 158.163 155.895 152.984C162.217 147.804 170.42 144.716 180.504 143.72C184.219 143.353 187.702 143.344 190.952 143.693C194.322 143.896 196.643 144.337 197.916 145.015C197.588 141.698 195.926 139.116 192.93 137.268C189.921 135.287 185.564 134.579 179.858 135.142C177.337 135.391 175.3 135.793 173.747 136.349C172.194 136.904 170.528 137.671 168.749 138.651C166.97 139.631 165.304 140.398 163.751 140.953C162.331 141.496 160.36 141.891 157.839 142.14C153.593 142.559 150.171 141.825 147.573 139.938C144.962 137.919 143.434 134.653 142.988 130.142C142.477 124.967 143.902 120.405 147.264 116.455C150.758 112.492 155.273 109.367 160.808 107.079C166.33 104.658 171.944 103.165 177.649 102.602C188.928 101.488 198.558 102.681 206.541 106.18C214.643 109.533 220.826 114.483 225.09 121.029C229.487 127.561 232.098 135.008 232.923 143.367C233.369 147.878 233.383 152.097 232.967 156.024C232.684 159.937 232.05 163.015 231.065 165.255C233.08 166.664 234.657 168.384 235.795 170.416C237.067 172.434 237.813 174.571 238.036 176.826C238.416 180.674 237.417 184.123 235.038 187.171C232.793 190.207 229.547 191.934 225.301 192.353C222.116 192.668 219.483 192.459 217.401 191.727C215.319 190.994 213.052 189.744 210.599 187.977C207.479 190.295 203.974 192.115 200.085 193.437C196.329 194.745 191.531 195.688 185.693 196.265ZM187.689 175.769C190.475 175.494 192.605 174.681 194.08 173.329C195.687 171.965 196.405 170.42 196.235 168.695C196.064 166.97 195.058 165.596 193.215 164.572C191.505 163.535 189.256 163.154 186.47 163.429C183.684 163.705 181.487 164.524 179.88 165.889C178.405 167.24 177.754 168.779 177.924 170.504C178.094 172.228 179.034 173.609 180.745 174.646C182.588 175.67 184.902 176.045 187.689 175.769ZM272.631 187.277C265.996 187.932 260.778 185.969 256.976 181.387C253.174 176.805 250.204 169.797 248.067 160.361C246.049 150.78 244.188 137.364 242.484 120.115C240.846 103.529 239.967 90.5524 239.846 81.1856C239.857 71.8057 241.246 64.1655 244.013 58.265C246.913 52.3515 251.945 49.0409 259.11 48.3333C266.275 47.6257 271.792 49.8945 275.659 55.1398C279.66 60.372 282.516 67.5929 284.23 76.8024C286.076 85.9988 287.818 98.89 289.456 115.476C291.068 131.797 291.642 145.071 291.178 155.3C290.834 165.382 289.186 173.115 286.234 178.498C283.269 183.748 278.734 186.674 272.631 187.277ZM352.403 179.801C342.584 180.771 333.703 179.705 325.759 176.604C317.816 173.503 311.381 168.712 306.453 162.232C301.646 155.606 298.809 147.914 297.944 139.156C297.093 130.532 298.363 122.367 301.756 114.663C305.281 106.946 310.543 100.531 317.541 95.4188C324.539 90.3063 332.748 87.2848 342.169 86.3545C350.661 85.5158 358.329 86.5004 365.171 89.3082C372.013 92.116 377.441 96.2024 381.455 101.567C385.455 106.799 387.756 112.467 388.359 118.571C389.342 128.523 386.281 136.194 379.176 141.585C372.191 146.83 363.524 149.964 353.174 150.986C346.275 151.667 340.351 151.381 335.404 150.128C340.027 156.237 346.916 158.839 356.071 157.935C359.787 157.568 363.721 156.71 367.876 155.362C369.429 154.807 370.935 154.457 372.394 154.313C375.314 154.025 377.708 154.525 379.577 155.814C381.579 157.091 382.704 158.989 382.953 161.51C383.359 165.624 381.192 169.455 376.451 173.005C371.697 176.422 363.681 178.687 352.403 179.801ZM333.603 125.787C334.981 127.527 336.711 128.763 338.793 129.495C340.994 130.082 343.356 130.25 345.877 130.001C348.796 129.713 351.251 128.801 353.243 127.264C355.368 125.715 356.326 123.878 356.116 121.755C355.88 119.367 354.682 117.408 352.521 115.88C350.493 114.339 347.688 113.745 344.105 114.099C340.523 114.452 337.781 115.862 335.881 118.327C334.1 120.647 333.341 123.133 333.603 125.787Z" fill="#007200"/>
</svg>
