<?xml version="1.0" encoding="UTF-8" standalone="no"?>
<!DOCTYPE svg PUBLIC "-//W3C//DTD SVG 1.1//EN" "http://www.w3.org/Graphics/SVG/1.1/DTD/svg11.dtd">
<svg width="456" height="456" viewBox="0 0 456 456" version="1.1" xmlns="http://www.w3.org/2000/svg" xmlns:xlink="http://www.w3.org/1999/xlink" xml:space="preserve" xmlns:serif="http://www.serif.com/" style="fill-rule:evenodd;clip-rule:evenodd;stroke-linejoin:round;stroke-miterlimit:2;">
<g transform="translate(140, 115) scale(1)">
<path fill-rule="evenodd" clip-rule="evenodd" d="M23.82 40.7622C25.6098 40.6111 27.3629 41.2755 28.8456 42.2335C29.5524 42.684 30.1308 43.2851 30.7087 43.8855C30.9356 44.1214 31.1626 44.3572 31.3972 44.5837C33.5959 43.9931 35.7254 43.6065 37.6442 44.306C39.563 45.0056 40.2239 46.8987 40.6819 49.0519C41.9389 49.4781 43.442 49.8185 44.0766 51.569C43.8452 52.9535 43.6363 54.3636 43.4507 55.7989C42.6129 56.7442 41.5147 57.1385 41.5506 57.4137C40.7119 57.3715 40.2906 58.6371 40.9118 59.1557C41.3535 59.5423 41.9276 59.7088 42.4826 59.8698C42.5206 59.8808 42.5587 59.8917 42.5964 59.9028C42.7246 59.938 42.8523 59.9757 42.9793 60.0158C42.8144 61.7603 42.6824 63.5397 42.5844 65.3538C42.256 65.4767 41.9333 65.6142 41.6224 65.7809C40.2274 66.4647 39.1148 67.6073 38.1989 68.8429C37.1057 70.3383 36.6933 72.0191 36.6582 73.8057H23.0272C22.568 73.4561 22.0843 73.1475 21.5666 72.8822C21.4845 72.8454 21.4022 72.8067 21.3196 72.768C20.9527 72.5959 20.5789 72.4208 20.1751 72.3849C19.8752 72.4468 19.7497 72.7048 19.6234 72.9645C19.4949 73.229 19.3654 73.4952 19.0503 73.5573C18.7743 73.6547 18.4938 73.737 18.2102 73.8057H15.9974C15.4794 73.8057 14.9728 73.8584 14.4826 73.9581C14.0117 73.8907 13.5455 73.7928 13.0893 73.6661C9.10234 72.5921 6.40854 67.7951 7.95979 63.8735C8.08179 63.4674 8.26317 63.0849 8.44402 62.7032C8.60132 62.3712 8.75833 62.0398 8.87586 61.6939L8.86017 61.6492C8.32286 60.1218 7.77159 58.5543 7.70728 56.9215C7.87576 55.0442 8.62851 53.1688 9.96735 51.8206C10.9231 50.9213 12.1204 50.3614 13.2991 49.8103L13.3005 49.8096C13.4045 49.761 13.5085 49.7123 13.612 49.6636C14.0104 47.1922 15.2037 44.8017 17.1831 43.2284C19.066 41.7326 21.444 40.9573 23.82 40.7622ZM23.3374 65.7122C22.8671 65.9161 22.6654 66.563 22.8127 67.0446C23.2357 67.5096 23.7014 67.9314 24.1671 68.3531C24.4742 68.6311 24.7814 68.9092 25.0763 69.1997C25.2934 69.3908 25.5045 69.5921 25.7158 69.7939C26.3035 70.355 26.8944 70.9191 27.6313 71.2721C27.6206 71.1075 27.6131 70.9401 27.6055 70.7716C27.5647 69.8676 27.5223 68.9281 26.9751 68.1785C26.482 67.4947 25.8537 66.8723 25.0518 66.5753C24.8543 66.4812 24.6699 66.3435 24.4854 66.2055C24.1356 65.944 23.7841 65.6812 23.3374 65.7122ZM33.345 62.891C33.2659 62.2407 32.4675 61.6256 31.8341 61.9419C31.5404 62.4885 31.4757 63.1022 31.4108 63.7171C31.3609 64.1897 31.3107 64.6632 31.1567 65.1077C30.3917 66.6738 31.1006 68.6478 32.4307 69.6726C32.6365 68.8526 32.7489 68.0147 32.8612 67.177C32.9174 66.7577 32.9735 66.3383 33.0415 65.9214C33.0724 65.6675 33.1077 65.4136 33.143 65.1596C33.2478 64.4059 33.3528 63.6508 33.345 62.891ZM37.6442 65.5577C37.5828 66.1218 37.4847 66.6808 37.3829 67.2397C37.7444 66.8847 38.111 66.5366 38.4795 66.1903C38.2497 65.918 37.946 65.7352 37.6442 65.5577Z" fill="white"/>
<path d="M148.192 31.2532C153.051 23.2562 154.64 17.3054 163.054 19.4865L163.056 19.4847C171.159 21.5855 170.122 27.6841 170.476 37.0302C170.794 45.4544 168.312 54.3352 165.764 64.151L163.256 73.8057H141.548C141.539 73.0053 141.523 72.211 141.502 71.4227C142.319 71.662 143.907 72.1524 144.714 72.1524C145.66 72.1523 144.717 71.0274 144.951 70.1288C145.418 68.327 143.193 68.0933 141.996 67.7831L141.35 67.6005C141.094 62.771 140.605 58.1798 139.902 53.8299C140.11 53.1298 140.324 52.4315 140.543 51.735L144.951 53.1401C145.547 53.2948 146.605 53.6756 147.432 53.3763C148.023 53.1625 148.972 53.0939 149.205 52.1954C149.5 51.0595 148.918 50.2619 147.722 49.9517L141.524 48.2984C143.617 42.7766 145.606 35.5088 148.192 31.2532Z" fill="white"/>
<path d="M102.094 57.0839C105.54 56.324 109.237 56.3189 112.555 57.6063C114.54 58.3188 116.39 59.6363 117.351 61.5486C118.163 63.0784 118.289 64.8474 118.289 66.5501C118.265 67.7427 118.154 68.9406 117.856 70.0999C117.043 69.9899 116.227 69.9061 115.411 69.8223C114.819 69.7614 114.227 69.7005 113.636 69.6297C113.054 69.5417 112.412 69.5851 111.999 70.0605C112.482 70.5158 113.075 70.8497 113.736 70.9609C114.232 71.0564 114.73 71.1535 115.226 71.2504C116.182 71.4369 117.139 71.6236 118.098 71.8007C118.062 72.1512 117.957 72.8692 117.81 73.8057H96.238C95.6581 71.6012 95.2348 69.8658 95.2497 69.5157C96.2546 69.4406 97.2625 69.4254 98.2701 69.4103C98.3423 69.4092 98.4148 69.408 98.487 69.4069C99.4147 69.3927 100.342 69.3749 101.268 69.3065C101.938 69.271 102.835 69.0837 102.92 68.2797C102.538 67.8668 101.984 67.8589 101.447 67.8514C101.264 67.8489 101.082 67.8463 100.91 67.8277C99.9918 67.7721 99.0734 67.8065 98.1558 67.8408C97.16 67.878 96.1646 67.9151 95.1705 67.8373C95.1805 65.8341 95.3644 63.7875 96.0716 61.8955C96.7339 60.4916 97.6158 59.0875 98.9923 58.2783C99.9225 57.6554 101.018 57.3576 102.094 57.0839Z" fill="white"/>
<path d="M78.2563 56.8751C80.6157 55.7792 83.019 57.8053 83.0578 59.5423C83.0964 61.2791 81.6349 61.9136 81.1107 62.3187C80.5865 62.7239 81.4859 62.0639 80.7607 62.5918C80.0355 63.1199 77.9703 66.2562 78.2563 67.2783C78.5424 68.3 79.8372 66.5075 81.1107 65.6598C82.3841 64.8122 83.6083 64.5009 85.685 64.6582C87.7618 64.8155 89.3003 65.4267 90.7935 66.9699C92.2867 68.5131 92.5922 70.0137 92.9943 71.4393C93.1859 72.1189 93.354 72.8663 93.4873 73.8057H60.6941C61.0933 71.3789 62.0072 69.8947 63.5217 69.0505C65.6436 67.8678 67.8218 67.618 69.4161 68.0202C71.0103 68.4225 71.8863 68.4701 72.1512 68.3558C72.3993 68.2487 72.201 68.1468 72.1839 68.0426L72.183 68.0219C72.1831 68.0213 72.1832 68.0208 72.1832 68.0202C72.309 66.6944 72.221 66.1905 72.8219 64.0818C73.4228 61.973 75.8968 57.9712 78.2563 56.8751Z" fill="white"/>
<path d="M106.709 35.7988C107.624 35.413 108.648 35.7737 109.458 36.239C110.368 36.8817 110.965 37.9149 111.194 38.9943C111.804 41.653 111.476 44.4185 110.938 47.0638C111.347 46.5421 111.646 45.9443 112.063 45.426C112.696 44.6237 113.44 43.9159 114.138 43.1692C115.064 42.2284 115.98 41.2369 117.139 40.5754C118.405 40.017 120.051 40.5427 120.74 41.7399C121.31 42.6035 121.193 43.7271 120.777 44.6287C119.287 47.5514 117.139 50.0625 115.211 52.7023C114.484 53.6371 113.853 54.6458 113.095 55.5581C112.786 55.6251 112.472 55.5322 112.167 55.4917C109.971 55.126 107.752 54.8138 105.521 54.907C103.873 54.9515 102.259 55.31 100.629 55.5111C99.7699 53.9916 99.1014 52.375 98.2477 50.8542C97.5601 49.6565 96.9374 48.4229 96.3047 47.1939C95.4688 45.602 94.4202 44.0879 93.954 42.3317C93.7458 41.6189 93.9132 40.8161 94.3422 40.2188C94.9717 39.4821 96.0636 39.4285 96.9145 39.7637C98.3292 40.2772 99.3906 41.4062 100.269 42.5826C101.371 43.9422 102.399 45.3612 103.418 46.784C103.244 44.0561 103.083 41.1706 104.235 38.6089C104.721 37.4311 105.674 36.5134 106.709 35.7988Z" fill="white"/>
<path d="M122.545 173.968C123.422 173.968 124.181 174.305 124.821 174.979C125.496 175.619 125.833 176.378 125.833 177.254C125.833 178.13 125.496 178.905 124.821 179.578C124.181 180.219 123.422 180.539 122.545 180.539C121.669 180.539 120.893 180.219 120.219 179.578C119.578 178.905 119.258 178.13 119.258 177.254C119.258 176.378 119.578 175.619 120.219 174.979C120.893 174.305 121.669 173.968 122.545 173.968Z" fill="white"/>
<path d="M92.8432 174.423C93.7536 174.423 94.546 174.777 95.2203 175.485C95.8947 176.158 96.2319 176.967 96.2319 177.911C96.2319 178.854 95.8947 179.68 95.2203 180.387C94.546 181.095 93.7536 181.449 92.8432 181.449C91.9328 181.449 91.1403 181.095 90.4659 180.387C89.7915 179.68 89.4543 178.854 89.4543 177.911C89.4543 176.967 89.7915 176.158 90.4659 175.485C91.1403 174.777 91.9328 174.423 92.8432 174.423Z" fill="white"/>
<path d="M85.2048 139.916C85.9129 139.916 86.4694 140.068 86.8741 140.371C87.3124 140.674 87.5316 141.045 87.5316 141.483C87.5316 141.921 87.3124 142.292 86.8741 142.595C86.4694 142.898 85.9129 143.05 85.2048 143.05C84.4968 143.05 83.9237 142.898 83.4853 142.595C83.0807 142.292 82.8783 141.921 82.8783 141.483C82.8783 141.045 83.0807 140.674 83.4853 140.371C83.9237 140.068 84.4968 139.916 85.2048 139.916Z" fill="white"/>
<path d="M126.103 131.425C127.013 131.425 127.704 131.644 128.176 132.082C128.682 132.52 128.935 133.042 128.935 133.649C128.935 134.188 128.648 134.626 128.075 134.963C127.536 135.3 126.895 135.468 126.153 135.468C125.513 135.468 124.922 135.367 124.383 135.165C123.877 134.929 123.473 134.575 123.169 134.104C123.169 133.43 123.422 132.824 123.928 132.284C124.467 131.712 125.192 131.425 126.103 131.425Z" fill="white"/>
<path fill-rule="evenodd" clip-rule="evenodd" d="M42.3932 75.4589C42.4844 81.7668 42.9576 88.4384 43.8508 95.4672L43.8757 95.6453C44.445 99.368 47.8855 101.978 51.6458 101.501C55.4657 101.016 58.1692 97.5289 57.6842 93.7118C56.8593 87.2202 56.4284 81.138 56.3382 75.4589H127.615C127.619 81.17 127.285 87.2883 126.559 93.8199C126.134 97.6443 128.892 101.089 132.719 101.514C136.546 101.939 139.993 99.183 140.418 95.3588C141.196 88.3691 141.563 81.7337 141.558 75.4589H164.002C167.064 75.459 169.619 77.7965 169.888 80.8444L179.907 194.306C181.126 208.116 170.236 220 156.363 220H23.6364C9.76344 220 -1.12602 208.116 0.0932838 194.306L10.1117 80.8444C10.3809 77.7965 12.9356 75.4589 15.9976 75.4589H42.3932ZM112.48 164.921C110.828 164.921 109.597 165.663 108.788 167.145C107.979 168.628 107.456 170.38 107.22 172.402C107.018 174.423 106.916 176.765 106.916 179.427C106.916 182.897 106.984 185.694 107.119 187.817C107.288 189.94 107.743 191.827 108.484 193.478C109.226 195.162 110.423 196.005 112.076 196.005C113.357 196.005 114.284 195.617 114.857 194.842C115.464 194.101 115.835 193.141 115.97 191.961C116.105 190.782 116.172 189.114 116.172 186.958C116.982 187.564 117.959 188.053 119.106 188.423C120.252 188.76 121.483 188.929 122.798 188.929C124.956 188.929 126.946 188.39 128.766 187.311C130.587 186.233 132.037 184.784 133.116 182.965C134.195 181.112 134.735 179.107 134.735 176.95C134.735 174.794 134.195 172.806 133.116 170.986C132.037 169.167 130.587 167.718 128.766 166.64C126.946 165.562 124.956 165.022 122.798 165.022C121.517 165.022 120.286 165.208 119.106 165.578C117.959 165.915 116.998 166.37 116.223 166.943C115.447 165.595 114.2 164.921 112.48 164.921ZM92.6913 164.972C90.2636 164.972 88.0718 165.494 86.1161 166.539C84.1941 167.583 82.6936 168.998 81.6146 170.784C80.5357 172.57 80.013 174.592 80.0468 176.849C80.1142 179.107 80.6707 181.162 81.716 183.016C82.795 184.835 84.2786 186.267 86.1669 187.311C88.0888 188.356 90.2636 188.861 92.6913 188.828C95.1528 188.794 97.3446 188.238 99.2666 187.16C101.222 186.082 102.74 184.65 103.819 182.864C104.898 181.044 105.42 179.039 105.386 176.849C105.319 174.592 104.729 172.553 103.616 170.734C102.504 168.914 100.986 167.499 99.0642 166.488C97.1759 165.477 95.0516 164.972 92.6913 164.972ZM67.1268 153.549C62.9794 153.549 59.6244 153.768 57.0617 154.206C54.4991 154.644 52.577 155.403 51.2957 156.481C50.0144 157.559 49.3738 159.042 49.3738 160.928C49.3738 162.478 49.7784 163.708 50.5876 164.618C51.3968 165.528 52.6445 166.219 54.3304 166.69C56.05 167.128 58.3094 167.415 61.108 167.55C61.0069 169.369 60.9562 171.458 60.9562 173.817C60.9562 177.321 61.1249 180.135 61.4621 182.257C61.7993 184.38 62.4063 185.981 63.2829 187.059C64.1596 188.137 65.4241 188.676 67.0763 188.676C68.7622 188.676 70.0771 188.171 71.0212 187.16C71.9654 186.115 72.623 184.532 72.994 182.409C73.3986 180.252 73.6008 177.388 73.6008 173.817C73.6008 171.256 73.5334 169.167 73.3986 167.55C77.546 167.347 80.5301 166.758 82.3509 165.78C84.2054 164.77 85.1326 163.152 85.1326 160.928C85.1326 159.042 84.4751 157.559 83.1601 156.481C81.8451 155.403 79.8893 154.644 77.293 154.206C74.6966 153.768 71.3079 153.549 67.1268 153.549ZM61.0455 112.826C58.4829 112.826 56.1225 113.348 53.9645 114.392C51.8065 115.437 50.1037 116.835 48.8561 118.588C47.6085 120.306 46.9847 122.142 46.9847 124.096C46.9847 126.118 47.3388 127.803 48.0469 129.151C48.7887 130.499 50.1206 131.745 52.0426 132.891C53.2902 133.632 54.9087 134.39 56.8981 135.165C58.0108 135.603 58.8031 135.957 59.2752 136.227C59.7472 136.462 59.9833 136.749 59.9833 137.086C59.9833 137.962 59.427 138.4 58.3143 138.4C57.876 138.4 57.4544 138.332 57.0497 138.198C56.6789 138.029 56.2237 137.81 55.6843 137.541C54.9425 137.136 54.2511 136.833 53.6105 136.631C53.0035 136.395 52.2785 136.277 51.4356 136.277C50.1543 136.277 49.0922 136.682 48.2493 137.49C47.4063 138.299 46.9847 139.394 46.9847 140.775C46.9847 142.224 47.6253 143.522 48.9066 144.667C50.1879 145.779 51.8403 146.655 53.8634 147.295C55.9203 147.902 58.0614 148.205 60.2868 148.205C64.468 148.205 67.705 147.413 69.9978 145.83C72.3244 144.212 73.4876 141.972 73.4877 139.108C73.4877 136.783 72.7458 134.896 71.2622 133.447C69.7786 131.964 67.469 130.65 64.3331 129.505C64.0971 129.403 63.6925 129.252 63.1193 129.05C62.5461 128.848 62.0401 128.628 61.6017 128.393C61.1634 128.123 60.9444 127.803 60.9444 127.432C60.9444 126.927 61.1298 126.539 61.5006 126.27C61.9053 125.967 62.3269 125.815 62.7652 125.815C63.3047 125.815 63.7262 125.866 64.0296 125.967C64.3331 126.034 64.704 126.152 65.1423 126.32C65.6818 126.556 66.2213 126.742 66.7608 126.876C67.334 127.011 68.177 127.078 69.2897 127.078C70.6385 127.078 71.8524 126.624 72.9314 125.714C74.0441 124.77 74.6004 123.372 74.6004 121.519C74.6004 119.902 73.9936 118.436 72.7798 117.122C71.5996 115.774 69.9641 114.729 67.8735 113.988C65.8167 113.213 63.5407 112.826 61.0455 112.826ZM84.4967 124.4C83.0469 124.4 81.597 124.636 80.1472 125.107C78.6972 125.545 77.4833 126.219 76.5055 127.129C75.5614 128.039 75.0892 129.151 75.0892 130.465C75.0892 131.611 75.3928 132.47 75.9998 133.043C76.6067 133.582 77.4496 133.851 78.5285 133.851C79.1691 133.851 79.6749 133.801 80.0458 133.699C80.4505 133.598 80.8889 133.447 81.361 133.245C81.833 133.042 82.2715 132.891 82.6761 132.79C83.0807 132.689 83.6034 132.638 84.244 132.638C85.6939 132.638 86.7728 132.925 87.4808 133.497C88.1889 134.037 88.543 134.727 88.543 135.57C88.2395 135.367 87.6664 135.199 86.8235 135.064C86.0143 134.896 85.1375 134.811 84.1935 134.811C81.6308 134.811 79.4895 135.384 77.7698 136.53C76.0502 137.676 75.1904 139.225 75.1903 141.18C75.1903 143.437 76.0334 145.173 77.7193 146.386C79.4052 147.565 81.5634 148.155 84.1935 148.155C85.677 148.155 86.9079 148.037 87.8857 147.801C88.8972 147.565 89.8244 147.194 90.6674 146.689C91.2406 147.194 91.7801 147.565 92.2858 147.801C92.7916 148.037 93.4493 148.155 94.2585 148.155C95.3375 148.155 96.1974 147.801 96.838 147.093C97.5123 146.386 97.8494 145.543 97.8494 144.566C97.8494 143.993 97.7146 143.437 97.4448 142.898C97.2088 142.359 96.8547 141.887 96.3826 141.483C96.6861 140.944 96.9222 140.186 97.0908 139.209C97.2931 138.231 97.3943 137.17 97.3943 136.025C97.3943 133.902 96.9222 131.964 95.978 130.212C95.0676 128.46 93.6347 127.062 91.679 126.017C89.757 124.939 87.3628 124.4 84.4967 124.4ZM126.305 124.4C123.911 124.4 121.77 124.956 119.881 126.068C117.993 127.18 116.51 128.662 115.431 130.515C114.385 132.369 113.863 134.39 113.863 136.58C113.863 138.804 114.385 140.809 115.431 142.595C116.51 144.347 118.01 145.712 119.932 146.689C121.854 147.666 124.063 148.155 126.558 148.155C129.424 148.155 131.498 147.784 132.779 147.043C134.06 146.268 134.701 145.358 134.701 144.313C134.701 143.673 134.465 143.168 133.993 142.797C133.554 142.427 132.964 142.241 132.223 142.241C131.852 142.241 131.464 142.292 131.059 142.393C129.98 142.629 128.969 142.747 128.025 142.747C125.698 142.747 124.029 141.921 123.017 140.27C124.231 140.708 125.715 140.927 127.468 140.927C130.098 140.927 132.358 140.354 134.246 139.209C136.168 138.029 137.129 136.176 137.129 133.649C137.129 132.099 136.69 130.616 135.814 129.201C134.937 127.752 133.673 126.59 132.02 125.714C130.368 124.838 128.463 124.4 126.305 124.4ZM106.347 112.775C104.526 112.775 103.177 113.483 102.3 114.898C101.457 116.313 100.918 118.2 100.682 120.559C100.48 122.917 100.378 126.202 100.378 130.414C100.378 134.794 100.513 138.215 100.783 140.674C101.086 143.1 101.66 144.937 102.503 146.183C103.346 147.43 104.61 148.054 106.296 148.054C107.847 148.054 109.061 147.43 109.938 146.183C110.814 144.903 111.421 142.999 111.759 140.472C112.13 137.911 112.315 134.559 112.315 130.414C112.315 126.202 112.197 122.917 111.961 120.559C111.758 118.2 111.219 116.313 110.342 114.898C109.499 113.483 108.167 112.775 106.347 112.775Z" fill="white"/>
<path d="M91.4189 0C105.898 -6.46192e-06 119.643 8.90363 128.663 25.0416C137.67 41.1573 142.166 64.6706 138.774 95.1761C138.45 98.093 135.82 100.195 132.902 99.8709C129.983 99.5467 127.879 96.9195 128.203 94.0026C131.429 64.9912 127.003 43.8668 119.377 30.2241C111.764 16.6037 101.165 10.628 91.4189 10.628C81.6891 10.6281 71.2228 16.584 63.8463 30.1674C56.4503 43.7869 52.355 64.8998 56.0427 93.92C56.4127 96.8315 54.3507 99.4914 51.4372 99.8612C48.5237 100.231 45.8618 98.1703 45.4918 95.2589C41.6164 64.7623 45.7342 41.2373 54.4984 25.0983C63.2821 8.92341 76.9231 3.4445e-05 91.4189 0Z" fill="white"/>
</g>
</svg>